<?xml version="1.0" encoding="utf-8"?>
<!-- Generator: Adobe Illustrator 19.2.1, SVG Export Plug-In . SVG Version: 6.00 Build 0)  -->
<svg version="1.1" id="Layer_1" xmlns="http://www.w3.org/2000/svg" xmlns:xlink="http://www.w3.org/1999/xlink" x="0px" y="0px"
	 viewBox="0 0 11.3 15.4" style="enable-background:new 0 0 11.3 15.4;" xml:space="preserve">
<style type="text/css">
	.st0{fill:#B4B4B5;}
	.st1{fill-rule:evenodd;clip-rule:evenodd;fill:#F15A22;}
	.st2{fill:#F15A22;}
	.st3{fill:#FFFFFF;}
</style>
<g>
	
		<rect x="-778.3" y="-1.8" transform="matrix(0.9503 -0.3113 0.3113 0.9503 -40.6264 -238.8502)" class="st0" width="19.7" height="19.3"/>
	<path class="st0" d="M-786.2-59l-8.6,2.8c-45.5,14.9-52.9,41.3-39.9,81l2.9,8.8c14.3,43.8,40.7,54.6,80.1,41.7l8.6-2.8
		c42.8-14,53.2-40.2,39.9-81l-2.9-8.8C-721.1-63-747.1-71.8-786.2-59z M-734.1,6.7c3.8-1.3,8,0.9,9.3,4.8s-0.8,8.1-4.6,9.4l-8,2.6
		l3,9c1.3,3.9-0.8,8.1-4.6,9.4c-3.8,1.3-8-0.9-9.3-4.8l-3-9l-18.7,6.1l3,9c1.3,3.9-0.8,8.1-4.6,9.4c-3.8,1.3-8-0.9-9.3-4.8l-3-9
		l-9.1,3c-3.8,1.3-8-0.9-9.3-4.8c-1.3-3.9,0.8-8.1,4.6-9.4l9.1-3l-6-18.3l-9.1,3c-3.8,1.3-8-0.9-9.3-4.8c-1.3-3.9,0.8-8.1,4.6-9.4
		l9.1-3l-3-9.3c-1.3-3.9,0.8-8.1,4.6-9.4c3.8-1.3,8,0.9,9.3,4.8l3,9.3l18.7-6.1l-3-9.3c-1.3-3.9,0.8-8.1,4.6-9.4
		c3.8-1.3,8,0.9,9.3,4.8l3,9.3l8-2.6c3.8-1.3,8,0.9,9.3,4.8s-0.8,8.1-4.6,9.4l-8,2.6l6,18.3L-734.1,6.7z"/>
</g>
<g id="white">
	<path class="st0" d="M-471.9-60.7h-98.9c-6.8,0-12.4,5.5-12.4,12.4V64.3c0,6.8,5.5,12.4,12.4,12.4h98.9c6.8,0,12.4-5.5,12.4-12.4
		V-48.3C-459.6-55.1-465.1-60.7-471.9-60.7z M-552.3,56.1V28.6l15.5,13.7L-552.3,56.1z M-504.2,56.1v-41c-0.1-3.2-1.6-7.1-8.6-7.1
		c-14,0-29.6,7-29.8,7.1l-9.7,4.4v-59.6h13.7v39c6.9-2.2,16.4-4.7,25.8-4.7c8.5,0,13.6,3.3,16.3,6.1c5.9,6,6,13.6,6,14.5v41.2
		H-504.2z M-500.8-17.7h-13.7c5.4-7.1,8.8-14.5,10.3-22.3h13.7C-491.4-32.2-494.6-24.8-500.8-17.7z"/>
</g>
<g>
	<path class="st1" d="M-258.4-64.2c-40.9,0-74,33.1-74,74c0,32.7,21.2,60.4,50.6,70.2c3.7,0.7,5.1-1.6,5.1-3.6
		c0-1.8-0.1-7.6-0.1-13.8c-20.6,4.5-24.9-8.7-24.9-8.7c-3.4-8.6-8.2-10.8-8.2-10.8c-6.7-4.6,0.5-4.5,0.5-4.5
		c7.4,0.5,11.3,7.6,11.3,7.6c6.6,11.3,17.3,8,21.5,6.2c0.7-4.8,2.6-8,4.7-9.9c-16.4-1.9-33.7-8.2-33.7-36.6c0-8.1,2.9-14.7,7.6-19.9
		c-0.8-1.9-3.3-9.4,0.7-19.6c0,0,6.2-2,20.4,7.6c5.9-1.6,12.2-2.5,18.5-2.5c6.3,0,12.6,0.9,18.5,2.5c14.1-9.6,20.3-7.6,20.3-7.6
		c4,10.2,1.5,17.7,0.7,19.6c4.7,5.2,7.6,11.8,7.6,19.9c0,28.4-17.3,34.7-33.8,36.5c2.7,2.3,5,6.8,5,13.7c0,9.9-0.1,17.9-0.1,20.3
		c0,2,1.3,4.3,5.1,3.6c29.4-9.8,50.6-37.5,50.6-70.2C-184.4-31-217.5-64.2-258.4-64.2z"/>
	<path class="st2" d="M-304.4,42.1c-0.2,0.4-0.7,0.5-1.3,0.2c-0.5-0.2-0.8-0.7-0.7-1.1c0.2-0.4,0.7-0.5,1.3-0.2
		C-304.5,41.2-304.2,41.7-304.4,42.1L-304.4,42.1z M-305.3,41.4"/>
	<path class="st2" d="M-301.4,45.4c-0.4,0.3-1,0.2-1.5-0.3c-0.5-0.5-0.6-1.2-0.2-1.5c0.4-0.3,1-0.2,1.5,0.3
		C-301.1,44.4-301,45.1-301.4,45.4L-301.4,45.4z M-302.1,44.7"/>
	<path class="st2" d="M-298.4,49.7c-0.5,0.3-1.2,0-1.7-0.6c-0.5-0.7-0.5-1.4,0-1.8c0.5-0.3,1.2,0,1.7,0.6
		C-298,48.6-298,49.4-298.4,49.7L-298.4,49.7z M-298.4,49.7"/>
	<path class="st2" d="M-294.4,53.8c-0.4,0.4-1.3,0.3-1.9-0.3c-0.6-0.6-0.8-1.4-0.4-1.9c0.4-0.4,1.3-0.3,1.9,0.3
		C-294.2,52.5-294,53.4-294.4,53.8L-294.4,53.8z M-294.4,53.8"/>
	<path class="st2" d="M-288.9,56.2c-0.2,0.6-1,0.8-1.8,0.6c-0.8-0.3-1.4-0.9-1.2-1.5c0.2-0.6,1-0.9,1.9-0.6
		C-289.3,55-288.7,55.6-288.9,56.2L-288.9,56.2z M-288.9,56.2"/>
	<path class="st2" d="M-282.9,56.7c0,0.6-0.7,1.1-1.6,1.1c-0.9,0-1.6-0.5-1.6-1.1c0-0.6,0.7-1.1,1.6-1.1
		C-283.6,55.6-282.9,56.1-282.9,56.7L-282.9,56.7z M-282.9,56.7"/>
	<path class="st2" d="M-277.2,55.7c0.1,0.6-0.5,1.2-1.4,1.4c-0.9,0.2-1.7-0.2-1.8-0.8c-0.1-0.6,0.5-1.2,1.4-1.4
		C-278.1,54.7-277.3,55.1-277.2,55.7L-277.2,55.7z M-277.2,55.7"/>
</g>
<g>
	<polygon class="st3" points="11.3,6.9 7.5,6.9 7.5,0 3.6,0 3.6,6.9 0,6.9 5.6,13.4 	"/>
	<rect y="13.8" class="st3" width="11.3" height="1.5"/>
</g>
</svg>
