<?xml version="1.0" encoding="utf-8"?>
<!-- Generator: Adobe Illustrator 19.2.1, SVG Export Plug-In . SVG Version: 6.00 Build 0)  -->
<svg version="1.1" id="Layer_1" xmlns="http://www.w3.org/2000/svg" xmlns:xlink="http://www.w3.org/1999/xlink" x="0px" y="0px"
	 viewBox="0 0 150 150" style="enable-background:new 0 0 150 150;" xml:space="preserve">
<style type="text/css">
	.st0{fill:#B4B4B5;}
	.st1{fill-rule:evenodd;clip-rule:evenodd;fill:#B4B4B5;}
</style>
<g>
	
		<rect x="66.1" y="65.2" transform="matrix(0.9503 -0.3113 0.3113 0.9503 -19.5133 27.3607)" class="st0" width="19.7" height="19.3"/>
	<path class="st0" d="M58.2,8l-8.6,2.8C4.1,25.7-3.2,52.1,9.8,91.8l2.9,8.8c14.3,43.8,40.7,54.6,80.1,41.7l8.6-2.8
		c42.8-14,53.2-40.2,39.9-81l-2.9-8.8C123.3,3.9,97.3-4.8,58.2,8z M110.3,73.7c3.8-1.3,8,0.9,9.3,4.8c1.3,3.9-0.8,8.1-4.6,9.4
		l-8,2.6l3,9c1.3,3.9-0.8,8.1-4.6,9.4c-3.8,1.3-8-0.9-9.3-4.8l-3-9l-18.7,6.1l3,9c1.3,3.9-0.8,8.1-4.6,9.4s-8-0.9-9.3-4.8l-3-9
		l-9.1,3c-3.8,1.3-8-0.9-9.3-4.8c-1.3-3.9,0.8-8.1,4.6-9.4l9.1-3l-6-18.3l-9.1,3c-3.8,1.3-8-0.9-9.3-4.8C30,67.5,32,63.3,35.9,62
		l9.1-3l-3-9.3c-1.3-3.9,0.8-8.1,4.6-9.4c3.8-1.3,8,0.9,9.3,4.8l3,9.3l18.7-6.1l-3-9.3c-1.3-3.9,0.8-8.1,4.6-9.4s8,0.9,9.3,4.8
		l3,9.3l8-2.6c3.8-1.3,8,0.9,9.3,4.8s-0.8,8.1-4.6,9.4l-8,2.6l6,18.3L110.3,73.7z"/>
</g>
<g id="white">
	<path class="st0" d="M372.4,6.3h-98.9c-6.8,0-12.4,5.5-12.4,12.4v112.6c0,6.8,5.5,12.4,12.4,12.4h98.9c6.8,0,12.4-5.5,12.4-12.4
		V18.7C384.8,11.9,379.3,6.3,372.4,6.3z M292.1,123.1V95.6l15.5,13.7L292.1,123.1z M340.2,123.1v-41c-0.1-3.2-1.6-7.1-8.6-7.1
		c-14,0-29.6,7-29.8,7.1l-9.7,4.4V26.9h13.7v39c6.9-2.2,16.4-4.7,25.8-4.7c8.5,0,13.6,3.3,16.3,6.1c5.9,6,6,13.6,6,14.5v41.2H340.2z
		 M343.6,49.2h-13.7c5.4-7.1,8.8-14.5,10.3-22.3h13.7C353,34.7,349.8,42.2,343.6,49.2z"/>
</g>
<g>
	<path class="st1" d="M586,1.9c-41.4,0-75,33.6-75,75c0,33.1,21.5,61.2,51.3,71.2c3.7,0.7,5.1-1.6,5.1-3.6c0-1.8-0.1-7.7-0.1-14
		c-20.9,4.5-25.3-8.8-25.3-8.8c-3.4-8.7-8.3-11-8.3-11c-6.8-4.7,0.5-4.6,0.5-4.6c7.5,0.5,11.5,7.7,11.5,7.7
		c6.7,11.5,17.5,8.2,21.8,6.2c0.7-4.8,2.6-8.2,4.8-10c-16.7-1.9-34.2-8.3-34.2-37.1c0-8.2,2.9-14.9,7.7-20.1
		c-0.8-1.9-3.3-9.5,0.7-19.8c0,0,6.3-2,20.6,7.7c6-1.7,12.4-2.5,18.8-2.5c6.4,0,12.8,0.9,18.8,2.5c14.3-9.7,20.6-7.7,20.6-7.7
		c4.1,10.3,1.5,18,0.7,19.8c4.8,5.3,7.7,11.9,7.7,20.1c0,28.8-17.5,35.1-34.2,37c2.7,2.3,5.1,6.9,5.1,13.9c0,10-0.1,18.1-0.1,20.6
		c0,2,1.3,4.3,5.2,3.6c29.8-9.9,51.2-38,51.2-71.2C661,35.4,627.4,1.9,586,1.9z"/>
	<path class="st0" d="M539.4,109.5c-0.2,0.4-0.8,0.5-1.3,0.2c-0.5-0.2-0.8-0.8-0.7-1.1c0.2-0.4,0.7-0.5,1.3-0.2
		C539.3,108.6,539.6,109.2,539.4,109.5L539.4,109.5z M538.5,108.9"/>
	<path class="st0" d="M542.4,112.9c-0.4,0.3-1.1,0.2-1.5-0.3c-0.5-0.5-0.6-1.2-0.2-1.6c0.4-0.3,1-0.2,1.5,0.3
		C542.7,111.9,542.8,112.6,542.4,112.9L542.4,112.9z M541.7,112.2"/>
	<path class="st0" d="M545.4,117.2c-0.5,0.3-1.2,0-1.7-0.6c-0.5-0.7-0.5-1.5,0-1.8c0.5-0.3,1.2,0,1.7,0.6
		C545.9,116.1,545.9,116.9,545.4,117.2L545.4,117.2z M545.4,117.2"/>
	<path class="st0" d="M549.4,121.4c-0.4,0.5-1.3,0.3-1.9-0.3c-0.7-0.6-0.8-1.5-0.4-1.9c0.4-0.5,1.3-0.3,1.9,0.3
		C549.7,120.1,549.9,121,549.4,121.4L549.4,121.4z M549.4,121.4"/>
	<path class="st0" d="M555,123.8c-0.2,0.6-1,0.9-1.9,0.6c-0.8-0.3-1.4-0.9-1.2-1.5c0.2-0.6,1-0.9,1.9-0.6
		C554.7,122.6,555.2,123.2,555,123.8L555,123.8z M555,123.8"/>
	<path class="st0" d="M561.2,124.3c0,0.6-0.7,1.1-1.6,1.1c-0.9,0-1.6-0.5-1.6-1.1c0-0.6,0.7-1.1,1.6-1.1
		C560.4,123.2,561.2,123.7,561.2,124.3L561.2,124.3z M561.2,124.3"/>
	<path class="st0" d="M566.9,123.3c0.1,0.6-0.5,1.2-1.4,1.4c-0.9,0.2-1.7-0.2-1.8-0.8c-0.1-0.6,0.5-1.2,1.4-1.4
		C566,122.3,566.8,122.7,566.9,123.3L566.9,123.3z M566.9,123.3"/>
</g>
</svg>
