<?xml version="1.0" encoding="utf-8"?>
<!-- Generator: Adobe Illustrator 19.2.1, SVG Export Plug-In . SVG Version: 6.00 Build 0)  -->
<svg version="1.1" id="Layer_1" xmlns="http://www.w3.org/2000/svg" xmlns:xlink="http://www.w3.org/1999/xlink" x="0px" y="0px"
	 viewBox="0 0 150 150" style="enable-background:new 0 0 150 150;" xml:space="preserve">
<style type="text/css">
	.st0{fill:#B4B4B5;}
	.st1{fill-rule:evenodd;clip-rule:evenodd;fill:#B4B4B5;}
</style>
<g>
	
		<rect x="-444.9" y="65.2" transform="matrix(0.9503 -0.3113 0.3113 0.9503 -44.9098 -131.7299)" class="st0" width="19.7" height="19.3"/>
	<path class="st0" d="M-452.8,8l-8.6,2.8c-45.5,14.9-52.9,41.3-39.9,81l2.9,8.8c14.3,43.8,40.7,54.6,80.1,41.7l8.6-2.8
		c42.8-14,53.2-40.2,39.9-81l-2.9-8.8C-387.7,3.9-413.7-4.8-452.8,8z M-400.7,73.7c3.8-1.3,8,0.9,9.3,4.8c1.3,3.9-0.8,8.1-4.6,9.4
		l-8,2.6l3,9c1.3,3.9-0.8,8.1-4.6,9.4c-3.8,1.3-8-0.9-9.3-4.8l-3-9l-18.7,6.1l3,9c1.3,3.9-0.8,8.1-4.6,9.4s-8-0.9-9.3-4.8l-3-9
		l-9.1,3c-3.8,1.3-8-0.9-9.3-4.8c-1.3-3.9,0.8-8.1,4.6-9.4l9.1-3l-6-18.3l-9.1,3c-3.8,1.3-8-0.9-9.3-4.8s0.8-8.1,4.6-9.4l9.1-3
		l-3-9.3c-1.3-3.9,0.8-8.1,4.6-9.4c3.8-1.3,8,0.9,9.3,4.8l3,9.3l18.7-6.1l-3-9.3c-1.3-3.9,0.8-8.1,4.6-9.4c3.8-1.3,8,0.9,9.3,4.8
		l3,9.3l8-2.6c3.8-1.3,8,0.9,9.3,4.8s-0.8,8.1-4.6,9.4l-8,2.6l6,18.3L-400.7,73.7z"/>
</g>
<g id="white">
	<path class="st0" d="M-138.6,6.3h-98.9c-6.8,0-12.4,5.5-12.4,12.4v112.6c0,6.8,5.5,12.4,12.4,12.4h98.9c6.8,0,12.4-5.5,12.4-12.4
		V18.7C-126.2,11.9-131.7,6.3-138.6,6.3z M-218.9,123.1V95.6l15.5,13.7L-218.9,123.1z M-170.8,123.1v-41c-0.1-3.2-1.6-7.1-8.6-7.1
		c-14,0-29.6,7-29.8,7.1l-9.7,4.4V26.9h13.7v39c6.9-2.2,16.4-4.7,25.8-4.7c8.5,0,13.6,3.3,16.3,6.1c5.9,6,6,13.6,6,14.5v41.2H-170.8
		z M-167.4,49.2h-13.7c5.4-7.1,8.8-14.5,10.3-22.3h13.7C-158,34.7-161.2,42.2-167.4,49.2z"/>
</g>
<g>
	<path class="st1" d="M75,2.8C34.1,2.8,1,36,1,76.8c0,32.7,21.2,60.4,50.6,70.2c3.7,0.7,5.1-1.6,5.1-3.6c0-1.8-0.1-7.6-0.1-13.8
		C36,134.2,31.6,121,31.6,121c-3.4-8.6-8.2-10.8-8.2-10.8c-6.7-4.6,0.5-4.5,0.5-4.5c7.4,0.5,11.3,7.6,11.3,7.6
		c6.6,11.3,17.3,8,21.5,6.2c0.7-4.8,2.6-8,4.7-9.9c-16.4-1.9-33.7-8.2-33.7-36.6c0-8.1,2.9-14.7,7.6-19.9c-0.8-1.9-3.3-9.4,0.7-19.6
		c0,0,6.2-2,20.4,7.6c5.9-1.6,12.2-2.5,18.5-2.5c6.3,0,12.6,0.9,18.5,2.5c14.1-9.6,20.3-7.6,20.3-7.6c4,10.2,1.5,17.7,0.7,19.6
		c4.7,5.2,7.6,11.8,7.6,19.9c0,28.4-17.3,34.7-33.8,36.5c2.7,2.3,5,6.8,5,13.7c0,9.9-0.1,17.9-0.1,20.3c0,2,1.3,4.3,5.1,3.6
		c29.4-9.8,50.6-37.5,50.6-70.2C149,36,115.9,2.8,75,2.8z"/>
	<path class="st0" d="M29,109.1c-0.2,0.4-0.7,0.5-1.3,0.2c-0.5-0.2-0.8-0.7-0.7-1.1c0.2-0.4,0.7-0.5,1.3-0.2
		C28.9,108.2,29.2,108.7,29,109.1L29,109.1z M28.1,108.4"/>
	<path class="st0" d="M32,112.4c-0.4,0.3-1,0.2-1.5-0.3c-0.5-0.5-0.6-1.2-0.2-1.5c0.4-0.3,1-0.2,1.5,0.3
		C32.3,111.4,32.4,112.1,32,112.4L32,112.4z M31.3,111.7"/>
	<path class="st0" d="M34.9,116.7c-0.5,0.3-1.2,0-1.7-0.6c-0.5-0.7-0.5-1.4,0-1.8c0.5-0.3,1.2,0,1.7,0.6
		C35.4,115.6,35.4,116.4,34.9,116.7L34.9,116.7z M34.9,116.7"/>
	<path class="st0" d="M38.9,120.8c-0.4,0.4-1.3,0.3-1.9-0.3c-0.6-0.6-0.8-1.4-0.4-1.9c0.4-0.4,1.3-0.3,1.9,0.3
		C39.2,119.5,39.4,120.4,38.9,120.8L38.9,120.8z M38.9,120.8"/>
	<path class="st0" d="M44.5,123.2c-0.2,0.6-1,0.8-1.8,0.6c-0.8-0.3-1.4-0.9-1.2-1.5c0.2-0.6,1-0.9,1.9-0.6
		C44.1,121.9,44.6,122.6,44.5,123.2L44.5,123.2z M44.5,123.2"/>
	<path class="st0" d="M50.5,123.6c0,0.6-0.7,1.1-1.6,1.1c-0.9,0-1.6-0.5-1.6-1.1c0-0.6,0.7-1.1,1.6-1.1
		C49.8,122.5,50.5,123,50.5,123.6L50.5,123.6z M50.5,123.6"/>
	<path class="st0" d="M56.1,122.7c0.1,0.6-0.5,1.2-1.4,1.4c-0.9,0.2-1.7-0.2-1.8-0.8c-0.1-0.6,0.5-1.2,1.4-1.4
		C55.2,121.7,56,122.1,56.1,122.7L56.1,122.7z M56.1,122.7"/>
</g>
</svg>
